<svg width="28" height="28" viewBox="0 0 28 28" fill="none" xmlns="http://www.w3.org/2000/svg">
<rect x="0.500051" y="0.499951" width="27" height="27" transform="matrix(1 -9.86011e-05 0.000102204 1 -0.00298078 0.00835009)" stroke="white"/>
<path d="M21.6658 24.5061L7.00981 24.5076L7.00975 23.9316L8.16143 20.8595L17.7934 20.8585L17.4088 14.2665C17.2806 12.3146 16.4165 11.5786 14.4325 11.5788L7.58449 11.5795L7.4244 10.7155C7.45637 10.4915 9.59994 6.20331 9.75992 6.04329L11.0399 6.04317L11.232 7.13115C11.3601 7.89913 11.4241 7.96313 12.0641 7.96307L15.7761 7.9627C18.9121 7.96239 20.1602 9.14627 20.2566 12.3143C20.3529 15.2582 20.1932 18.1063 20.2252 18.9063C20.2574 20.5383 20.3214 20.6343 21.7295 21.0501L22.6895 21.338L21.6658 24.5061Z" fill="white"/>
</svg>
