<svg width="28" height="28" viewBox="0 0 28 28" fill="none" xmlns="http://www.w3.org/2000/svg">
<rect x="0.500051" y="0.499951" width="27" height="27" transform="matrix(1 -9.86011e-05 0.000102204 1 -0.00298078 0.0054204)" stroke="white"/>
<path d="M18.209 16.9195C19.5212 18.5514 20.7694 20.1833 21.8575 21.8152L20.7699 25.1433L20.1939 25.1433C17.8895 21.9436 15.2652 18.8078 12.4169 15.7041C11.105 16.8242 10.6252 18.2323 10.4655 21.1123L10.3058 23.9923L7.55383 24.7286L6.81783 24.7287C6.94567 23.0966 6.97763 22.7446 7.13749 21.3366C7.58512 17.7846 8.48093 15.8645 10.7207 13.9443C9.44059 12.6004 8.09646 11.2885 6.72032 9.97666L7.96798 6.58454L8.51198 6.58449C11.6803 9.56017 14.4966 12.5359 16.9929 15.4477C17.6966 13.0796 17.8566 12.3436 17.8565 11.4796C17.8564 10.9676 17.7924 10.4556 17.5042 8.8876L20.512 6.7433L21.216 6.74323C21.4081 7.54321 21.5042 8.3112 21.5042 9.07921C21.5045 11.5752 20.4807 13.9753 18.209 16.9195Z" fill="white"/>
</svg>
