<svg width="28" height="28" viewBox="0 0 28 28" fill="none" xmlns="http://www.w3.org/2000/svg">
<rect x="0.500051" y="0.499951" width="27" height="27" transform="matrix(1 -9.86011e-05 0.000102204 1 -0.00591047 0.0054204)" stroke="white"/>
<path d="M7.45567 24.9526L6.71967 24.9527C7.16719 20.2166 8.41475 15.9605 10.3984 12.3443L6.39815 10.0087L7.26179 6.52061L7.83779 6.52055L13.0221 9.46404L14.0459 7.92794C14.8139 7.73586 15.6139 7.60779 16.3179 7.60772C20.3179 7.60732 21.8861 9.84717 21.8867 15.6072C21.8869 17.2392 21.5032 20.5672 21.0554 22.4553L20.5756 24.5033L11.7436 24.5042L11.7436 23.9282L12.7673 20.8561L19.7433 20.8554C19.7752 20.5674 19.7752 20.5034 19.7751 19.1594C19.7425 13.7514 18.4303 11.1915 15.6783 11.1918C14.5263 11.1919 13.7583 11.544 12.9264 12.4401C11.5186 13.9762 10.111 18.8403 9.63156 23.8644L7.45567 24.9526Z" fill="white"/>
</svg>
