<svg width="28" height="28" viewBox="0 0 28 28" fill="none" xmlns="http://www.w3.org/2000/svg">
<rect x="0.500051" y="0.499951" width="27" height="27" transform="matrix(1 -9.86011e-05 0.000102204 1 -0.00884016 0.0054204)" stroke="white"/>
<path d="M18.2032 16.9195C19.5153 18.5514 20.7635 20.1833 21.8517 21.8152L20.764 25.1433L20.188 25.1433C17.8837 21.9436 15.2594 18.8078 12.411 15.7041C11.0992 16.8242 10.6193 18.2323 10.4596 21.1123L10.2999 23.9923L7.54797 24.7286L6.81197 24.7287C6.9398 23.0966 6.97177 22.7446 7.13162 21.3366C7.57926 17.7846 8.47506 15.8645 10.7149 13.9443C9.43473 12.6004 8.0906 11.2885 6.71446 9.97666L7.96212 6.58454L8.50612 6.58449C11.6744 9.56017 14.4907 12.5359 16.987 15.4477C17.6908 13.0796 17.8507 12.3436 17.8506 11.4796C17.8506 10.9676 17.7865 10.4556 17.4984 8.8876L20.5061 6.7433L21.2101 6.74323C21.4022 7.54321 21.4983 8.3112 21.4984 9.07921C21.4986 11.5752 20.4749 13.9753 18.2032 16.9195Z" fill="white"/>
</svg>
