<svg width="28" height="28" viewBox="0 0 28 28" fill="none" xmlns="http://www.w3.org/2000/svg">
<rect x="0.500051" y="0.499951" width="27" height="27" transform="matrix(1 -9.86011e-05 0.000102204 1 -0.00591047 0.00297899)" stroke="white"/>
<path d="M7.45567 24.9501L6.71967 24.9502C7.16719 20.2142 8.41475 15.9581 10.3984 12.3419L6.39815 10.0063L7.26179 6.51817L7.83779 6.51811L13.0221 9.4616L14.0459 7.9255C14.8139 7.73342 15.6139 7.60535 16.3179 7.60528C20.3179 7.60488 21.8861 9.84473 21.8867 15.6047C21.8869 17.2367 21.5032 20.5648 21.0554 22.4528L20.5756 24.5009L11.7436 24.5017L11.7436 23.9257L12.7673 20.8536L19.7433 20.8529C19.7752 20.5649 19.7752 20.5009 19.7751 19.1569C19.7425 13.7489 18.4303 11.1891 15.6783 11.1893C14.5263 11.1895 13.7583 11.5415 12.9264 12.4376C11.5186 13.9737 10.111 18.8379 9.63156 23.8619L7.45567 24.9501Z" fill="white"/>
</svg>
