<svg width="28" height="28" viewBox="0 0 28 28" fill="none" xmlns="http://www.w3.org/2000/svg">
<rect x="0.500051" y="0.499951" width="27" height="27" transform="matrix(1 -9.86011e-05 0.000102204 1 -0.00591047 0.00835009)" stroke="white"/>
<path d="M18.2061 16.9225C19.5183 18.5543 20.7664 20.1862 21.8546 21.8181L20.7669 25.1462L20.1909 25.1463C17.8866 21.9465 15.2623 18.8108 12.414 15.707C11.1021 16.8272 10.6222 18.2352 10.4625 21.1152L10.3028 23.9952L7.5509 24.7315L6.8149 24.7316C6.94273 23.0996 6.9747 22.7476 7.13455 21.3396C7.58219 17.7875 8.47799 15.8674 10.7178 13.9472C9.43766 12.6033 8.09353 11.2915 6.71739 9.97959L7.96505 6.58747L8.50905 6.58742C11.6774 9.5631 14.4937 12.5388 16.99 15.4506C17.6937 13.0825 17.8536 12.3465 17.8535 11.4825C17.8535 10.9705 17.7894 10.4585 17.5013 8.89053L20.5091 6.74623L21.2131 6.74616C21.4051 7.54614 21.5012 8.31413 21.5013 9.08213C21.5016 11.5781 20.4778 13.9782 18.2061 16.9225Z" fill="white"/>
</svg>
