<svg width="28" height="28" viewBox="0 0 28 28" fill="none" xmlns="http://www.w3.org/2000/svg">
<rect x="0.500051" y="0.499951" width="27" height="27" transform="matrix(1 -9.86011e-05 0.000102204 1 -0.00298078 0.00297899)" stroke="white"/>
<path d="M18.1778 24.5011L7.52181 24.5021L7.52175 23.9261L8.64143 20.854L16.5134 20.8533C17.5374 20.8532 17.8254 20.5971 18.0813 19.6051C18.2412 18.9011 18.3691 17.5251 18.369 16.6611C18.3686 12.8211 17.0885 11.5732 13.3445 11.5736L7.96849 11.5741L7.8084 10.7101C7.84037 10.4861 9.98394 6.1979 10.1439 6.03788L11.4239 6.03776L11.616 7.12574C11.7441 7.89373 11.8081 7.95772 12.4481 7.95766L14.6241 7.95744C19.2961 7.95698 20.8643 9.65283 20.8648 14.5168C20.8651 17.8768 19.8095 21.8129 18.1778 24.5011Z" fill="white"/>
</svg>
